<?xml version="1.0" encoding="utf-8"?>
<!-- Generator: Adobe Illustrator 16.0.0, SVG Export Plug-In . SVG Version: 6.00 Build 0)  -->
<!DOCTYPE svg PUBLIC "-//W3C//DTD SVG 1.1//EN" "http://www.w3.org/Graphics/SVG/1.1/DTD/svg11.dtd">
<svg version="1.1" id="Layer_1" xmlns="http://www.w3.org/2000/svg" xmlns:xlink="http://www.w3.org/1999/xlink" x="0px" y="0px"
	 width="32px" height="16px" viewBox="0 0 32 16" enable-background="new 0 0 32 16" xml:space="preserve">
<path fill="#1B1B17" d="M13.094,8.073l-1.041-0.095c0.244-2.914-0.682-4.157-0.682-4.157l0.504-1.183l-1.157-0.345l-0.137-0.83
	L5.377,2.521l0.149,0.728C4.09,4.536,3.574,6.663,4.051,8.973L2.834,9.335l0.653,2.638l1.461-0.178l0.346,2.536l1.679,0.185
	l0.298-2.793l1.519-0.068l0.644,2.426l1.786-0.307l0.015-2.933l2.044-0.526L13.094,8.073z"/>
<path fill="none" stroke="#FFFFFF" stroke-width="0.5" stroke-miterlimit="10" d="M8.595,4.167L8.359,4.178
	C7.76,4.237,7.213,4.526,6.828,4.988c-0.383,0.46-0.561,1.037-0.504,1.628c0.114,1.125,1.102,2.005,2.253,2.005
	c0.076,0,0.154-0.005,0.231-0.01c0.606-0.062,1.156-0.351,1.541-0.813c0.382-0.46,0.562-1.036,0.505-1.625
	C10.739,5.03,9.77,4.167,8.595,4.167z"/>
<path fill="#181616" d="M23.857,1.923c-3.242,0-5.871,2.629-5.871,5.873c0,2.595,1.683,4.796,4.017,5.573
	c0.293,0.054,0.399-0.127,0.399-0.283c0-0.139-0.004-0.509-0.008-0.999c-1.634,0.354-1.979-0.788-1.979-0.788
	c-0.268-0.678-0.65-0.857-0.65-0.857c-0.535-0.365,0.039-0.357,0.039-0.357c0.59,0.042,0.899,0.605,0.899,0.605
	c0.522,0.897,1.374,0.639,1.709,0.487c0.054-0.379,0.205-0.639,0.373-0.784c-1.306-0.148-2.677-0.652-2.677-2.903
	c0-0.642,0.229-1.165,0.604-1.576c-0.062-0.148-0.262-0.746,0.058-1.555c0,0,0.494-0.158,1.615,0.602
	c0.469-0.13,0.971-0.195,1.471-0.197c0.5,0.002,1.002,0.067,1.471,0.197c1.122-0.76,1.613-0.602,1.613-0.602
	c0.32,0.809,0.119,1.406,0.06,1.555c0.376,0.411,0.604,0.934,0.604,1.576c0,2.256-1.375,2.752-2.684,2.897
	c0.212,0.182,0.398,0.54,0.398,1.088c0,0.784-0.008,1.418-0.008,1.61c0,0.157,0.106,0.339,0.404,0.282
	c2.332-0.777,4.014-2.979,4.014-5.572C29.73,4.552,27.104,1.923,23.857,1.923z"/>
</svg>
